<svg width="15" height="16" viewBox="0 0 15 16" fill="none" xmlns="http://www.w3.org/2000/svg">
<path d="M10.2851 8.07631C11.024 7.49494 11.5633 6.69772 11.8281 5.79556C12.0928 4.89339 12.0698 3.93114 11.7622 3.04267C11.4545 2.15421 10.8777 1.38372 10.1118 0.838383C9.34586 0.293051 8.42903 0 7.48882 0C6.54861 0 5.63178 0.293051 4.86588 0.838383C4.09998 1.38372 3.52309 2.15421 3.21548 3.04267C2.90787 3.93114 2.88483 4.89339 3.14957 5.79556C3.41431 6.69772 3.95366 7.49494 4.69258 8.07631C3.42642 8.58358 2.32165 9.42494 1.49604 10.5107C0.670442 11.5965 0.154958 12.8859 0.00454622 14.2416C-0.00634133 14.3406 0.00237294 14.4407 0.0301913 14.5363C0.0580097 14.632 0.104387 14.7211 0.166676 14.7988C0.292475 14.9557 0.475448 15.0562 0.675342 15.0782C0.875237 15.1002 1.07568 15.0419 1.23257 14.9161C1.38947 14.7903 1.48996 14.6073 1.51195 14.4074C1.67745 12.9341 2.37998 11.5733 3.48531 10.5852C4.59064 9.59711 6.02128 9.05087 7.5039 9.05087C8.98651 9.05087 10.4171 9.59711 11.5225 10.5852C12.6278 11.5733 13.3303 12.9341 13.4958 14.4074C13.5163 14.5926 13.6047 14.7637 13.7439 14.8875C13.8831 15.0114 14.0632 15.0793 14.2495 15.0782H14.3324C14.53 15.0555 14.7106 14.9556 14.8348 14.8003C14.9591 14.645 15.0169 14.4469 14.9957 14.2491C14.8446 12.8896 14.3263 11.5968 13.4965 10.5094C12.6666 9.42198 11.5565 8.58089 10.2851 8.07631ZM7.48882 7.54118C6.89255 7.54118 6.30966 7.36436 5.81388 7.03309C5.3181 6.70182 4.93168 6.23097 4.7035 5.68008C4.47531 5.1292 4.41561 4.52302 4.53194 3.9382C4.64826 3.35339 4.9354 2.8162 5.35703 2.39457C5.77866 1.97294 6.31584 1.68581 6.90066 1.56948C7.48548 1.45315 8.09166 1.51285 8.64254 1.74104C9.19343 1.96922 9.66428 2.35564 9.99555 2.85142C10.3268 3.34721 10.5036 3.93009 10.5036 4.52636C10.5036 5.32594 10.186 6.09277 9.62062 6.65816C9.05523 7.22355 8.2884 7.54118 7.48882 7.54118Z" fill="#BEBEBE"/>
</svg>
