<svg width="15" height="15" viewBox="0 0 15 15" fill="none" xmlns="http://www.w3.org/2000/svg">
<path d="M14.9748 5.41821C14.9275 5.28121 14.8415 5.16088 14.7272 5.07181C14.6128 4.98273 14.4751 4.92875 14.3307 4.91639L10.069 4.29474L8.15912 0.422507C8.09779 0.295877 8.00203 0.189082 7.88281 0.114357C7.76359 0.0396323 7.62574 0 7.48503 0C7.34433 0 7.20648 0.0396323 7.08726 0.114357C6.96804 0.189082 6.87228 0.295877 6.81095 0.422507L4.90105 4.28725L0.639352 4.91639C0.500733 4.93609 0.370411 4.99426 0.263177 5.08428C0.155942 5.1743 0.0760887 5.29258 0.0326779 5.4257C-0.00705933 5.55578 -0.0106253 5.69422 0.0223627 5.82617C0.0553507 5.95812 0.123647 6.0786 0.219923 6.17468L3.31321 9.1706L2.56423 13.4248C2.53399 13.5659 2.54517 13.7128 2.59643 13.8477C2.64768 13.9826 2.73682 14.0999 2.85314 14.1853C2.96945 14.2708 3.10797 14.3208 3.25204 14.3294C3.39611 14.338 3.5396 14.3047 3.66523 14.2337L7.48503 12.2339L11.3048 14.2337C11.41 14.293 11.5287 14.324 11.6494 14.3236C11.808 14.3242 11.9628 14.2743 12.0913 14.1813C12.2075 14.098 12.2974 13.9833 12.3505 13.8506C12.4036 13.7179 12.4176 13.5727 12.3909 13.4323L11.6419 9.17809L14.7352 6.18217C14.8433 6.09055 14.9232 5.97013 14.9657 5.8349C15.0081 5.69967 15.0113 5.55518 14.9748 5.41821ZM10.3686 8.41413C10.2819 8.49832 10.2169 8.60224 10.1791 8.71701C10.1412 8.83178 10.1318 8.954 10.1514 9.07323L10.6907 12.219L7.8745 10.721C7.76506 10.6668 7.64459 10.6387 7.52248 10.6387C7.40037 10.6387 7.27991 10.6668 7.17046 10.721L4.3543 12.219L4.89356 9.07323C4.91321 8.954 4.90372 8.83178 4.8659 8.71701C4.82808 8.60224 4.76305 8.49832 4.67636 8.41413L2.42942 6.16719L5.58262 5.71031C5.70396 5.69343 5.8193 5.64705 5.91854 5.57523C6.01778 5.50341 6.09789 5.40835 6.15185 5.29837L7.48503 2.44475L8.89312 5.30586C8.94708 5.41584 9.02719 5.5109 9.12643 5.58272C9.22567 5.65454 9.34101 5.70092 9.46234 5.7178L12.6156 6.17468L10.3686 8.41413Z" fill="#BEBEBE"/>
</svg>
